<svg xmlns="http://www.w3.org/2000/svg" xmlns:xlink="http://www.w3.org/1999/xlink" width="960" zoomAndPan="magnify" viewBox="0 0 720 431.999984" height="576" preserveAspectRatio="xMidYMid meet" version="1.0"><defs><clipPath id="31c45be217"><path d="M 51 0 L 669 0 C 697.167969 0 720 22.832031 720 51 L 720 381 C 720 409.167969 697.167969 432 669 432 L 51 432 C 22.832031 432 0 409.167969 0 381 L 0 51 C 0 22.832031 22.832031 0 51 0 Z M 51 0 " clip-rule="nonzero"/></clipPath><clipPath id="7ace03794e"><path d="M 0 0 L 720 0 L 720 432 L 0 432 Z M 0 0 " clip-rule="nonzero"/></clipPath><clipPath id="6475757b7c"><path d="M 51 0 L 669 0 C 697.167969 0 720 22.832031 720 51 L 720 381 C 720 409.167969 697.167969 432 669 432 L 51 432 C 22.832031 432 0 409.167969 0 381 L 0 51 C 0 22.832031 22.832031 0 51 0 Z M 51 0 " clip-rule="nonzero"/></clipPath><clipPath id="efb1a32a5f"><rect x="0" width="720" y="0" height="432"/></clipPath><clipPath id="c9517374dd"><path d="M 316.753906 333.769531 L 720 333.769531 L 720 432 L 316.753906 432 Z M 316.753906 333.769531 " clip-rule="nonzero"/></clipPath><clipPath id="7f440be11c"><path d="M 365.867188 333.769531 L 670.886719 333.769531 C 683.910156 333.769531 696.402344 338.945312 705.613281 348.15625 C 714.824219 357.367188 720 369.859375 720 382.886719 C 720 395.910156 714.824219 408.402344 705.613281 417.613281 C 696.402344 426.824219 683.910156 432 670.886719 432 L 365.867188 432 C 352.84375 432 340.351562 426.824219 331.140625 417.613281 C 321.929688 408.402344 316.753906 395.910156 316.753906 382.886719 C 316.753906 369.859375 321.929688 357.367188 331.140625 348.15625 C 340.351562 338.945312 352.84375 333.769531 365.867188 333.769531 Z M 365.867188 333.769531 " clip-rule="nonzero"/></clipPath><clipPath id="2058776677"><path d="M 0.753906 0.769531 L 404 0.769531 L 404 99 L 0.753906 99 Z M 0.753906 0.769531 " clip-rule="nonzero"/></clipPath><clipPath id="51317fc338"><path d="M 49.867188 0.769531 L 354.886719 0.769531 C 367.910156 0.769531 380.402344 5.945312 389.613281 15.15625 C 398.824219 24.367188 404 36.859375 404 49.886719 C 404 62.910156 398.824219 75.402344 389.613281 84.613281 C 380.402344 93.824219 367.910156 99 354.886719 99 L 49.867188 99 C 36.84375 99 24.351562 93.824219 15.140625 84.613281 C 5.929688 75.402344 0.753906 62.910156 0.753906 49.886719 C 0.753906 36.859375 5.929688 24.367188 15.140625 15.15625 C 24.351562 5.945312 36.84375 0.769531 49.867188 0.769531 Z M 49.867188 0.769531 " clip-rule="nonzero"/></clipPath><clipPath id="a68aee9b67"><rect x="0" width="404" y="0" height="99"/></clipPath><clipPath id="1a5610123f"><path d="M 0 333.769531 L 442.414062 333.769531 L 442.414062 432 L 0 432 Z M 0 333.769531 " clip-rule="nonzero"/></clipPath><clipPath id="82081c7e6f"><path d="M 49.113281 333.769531 L 393.054688 333.769531 C 406.078125 333.769531 418.570312 338.945312 427.78125 348.15625 C 436.992188 357.367188 442.167969 369.859375 442.167969 382.886719 C 442.167969 395.910156 436.992188 408.402344 427.78125 417.613281 C 418.570312 426.824219 406.078125 432 393.054688 432 L 49.113281 432 C 36.089844 432 23.597656 426.824219 14.386719 417.613281 C 5.175781 408.402344 0 395.910156 0 382.886719 C 0 369.859375 5.175781 357.367188 14.386719 348.15625 C 23.597656 338.945312 36.089844 333.769531 49.113281 333.769531 Z M 49.113281 333.769531 " clip-rule="nonzero"/></clipPath><clipPath id="bb4f8197cd"><path d="M 0 0.769531 L 442.320312 0.769531 L 442.320312 99 L 0 99 Z M 0 0.769531 " clip-rule="nonzero"/></clipPath><clipPath id="230d0c636d"><path d="M 49.113281 0.769531 L 393.054688 0.769531 C 406.078125 0.769531 418.570312 5.945312 427.78125 15.15625 C 436.992188 24.367188 442.167969 36.859375 442.167969 49.886719 C 442.167969 62.910156 436.992188 75.402344 427.78125 84.613281 C 418.570312 93.824219 406.078125 99 393.054688 99 L 49.113281 99 C 36.089844 99 23.597656 93.824219 14.386719 84.613281 C 5.175781 75.402344 0 62.910156 0 49.886719 C 0 36.859375 5.175781 24.367188 14.386719 15.15625 C 23.597656 5.945312 36.089844 0.769531 49.113281 0.769531 Z M 49.113281 0.769531 " clip-rule="nonzero"/></clipPath><clipPath id="6a2e015138"><rect x="0" width="443" y="0" height="99"/></clipPath><clipPath id="8f511bb26d"><path d="M 0 0 L 475 0 L 475 382.886719 L 0 382.886719 Z M 0 0 " clip-rule="nonzero"/></clipPath><clipPath id="1f2fb21791"><path d="M 51 0 L 423.644531 0 C 451.808594 0 474.644531 22.832031 474.644531 51 L 474.644531 331.886719 C 474.644531 360.050781 451.808594 382.886719 423.644531 382.886719 L 51 382.886719 C 22.832031 382.886719 0 360.050781 0 331.886719 L 0 51 C 0 22.832031 22.832031 0 51 0 Z M 51 0 " clip-rule="nonzero"/></clipPath><clipPath id="ea83b1e930"><path d="M 0 0 L 474.71875 0 L 474.71875 382.886719 L 0 382.886719 Z M 0 0 " clip-rule="nonzero"/></clipPath><clipPath id="7a280261b4"><path d="M 51 0 L 423.644531 0 C 451.808594 0 474.644531 22.832031 474.644531 51 L 474.644531 331.886719 C 474.644531 360.050781 451.808594 382.886719 423.644531 382.886719 L 51 382.886719 C 22.832031 382.886719 0 360.050781 0 331.886719 L 0 51 C 0 22.832031 22.832031 0 51 0 Z M 51 0 " clip-rule="nonzero"/></clipPath><clipPath id="f90f286917"><rect x="0" width="475" y="0" height="383"/></clipPath><clipPath id="d6c6883724"><path d="M 0 318.984375 L 720 318.984375 L 720 382.886719 L 0 382.886719 Z M 0 318.984375 " clip-rule="nonzero"/></clipPath><clipPath id="dff3a3dc02"><path d="M 0 0.984375 L 720 0.984375 L 720 64.886719 L 0 64.886719 Z M 0 0.984375 " clip-rule="nonzero"/></clipPath><clipPath id="1b70d4617a"><rect x="0" width="720" y="0" height="65"/></clipPath><clipPath id="6ecd997b2a"><path d="M 17.894531 16.714844 L 60.28125 16.714844 L 60.28125 58.285156 L 17.894531 58.285156 Z M 17.894531 16.714844 " clip-rule="nonzero"/></clipPath><clipPath id="5dadbadfab"><path d="M 38.679688 16.714844 L 39.429688 16.714844 C 44.941406 16.714844 50.226562 18.902344 54.125 22.800781 C 58.023438 26.699219 60.214844 31.988281 60.214844 37.5 C 60.214844 43.011719 58.023438 48.300781 54.125 52.199219 C 50.226562 56.097656 44.941406 58.285156 39.429688 58.285156 L 38.679688 58.285156 C 33.167969 58.285156 27.882812 56.097656 23.984375 52.199219 C 20.085938 48.300781 17.894531 43.011719 17.894531 37.5 C 17.894531 31.988281 20.085938 26.699219 23.984375 22.800781 C 27.882812 18.902344 33.167969 16.714844 38.679688 16.714844 Z M 38.679688 16.714844 " clip-rule="nonzero"/></clipPath><clipPath id="474f2fb833"><path d="M 0.894531 0.714844 L 43.238281 0.714844 L 43.238281 42.285156 L 0.894531 42.285156 Z M 0.894531 0.714844 " clip-rule="nonzero"/></clipPath><clipPath id="e40d8caf45"><path d="M 21.679688 0.714844 L 22.429688 0.714844 C 27.941406 0.714844 33.226562 2.902344 37.125 6.800781 C 41.023438 10.699219 43.214844 15.988281 43.214844 21.5 C 43.214844 27.011719 41.023438 32.300781 37.125 36.199219 C 33.226562 40.097656 27.941406 42.285156 22.429688 42.285156 L 21.679688 42.285156 C 16.167969 42.285156 10.882812 40.097656 6.984375 36.199219 C 3.085938 32.300781 0.894531 27.011719 0.894531 21.5 C 0.894531 15.988281 3.085938 10.699219 6.984375 6.800781 C 10.882812 2.902344 16.167969 0.714844 21.679688 0.714844 Z M 21.679688 0.714844 " clip-rule="nonzero"/></clipPath><clipPath id="52950fac0a"><rect x="0" width="44" y="0" height="43"/></clipPath><clipPath id="63bc9f3629"><path d="M 72.324219 16.714844 L 114.707031 16.714844 L 114.707031 58.285156 L 72.324219 58.285156 Z M 72.324219 16.714844 " clip-rule="nonzero"/></clipPath><clipPath id="4cd098e89b"><path d="M 93.109375 16.714844 L 93.855469 16.714844 C 99.371094 16.714844 104.65625 18.902344 108.554688 22.800781 C 112.453125 26.699219 114.644531 31.988281 114.644531 37.5 C 114.644531 43.011719 112.453125 48.300781 108.554688 52.199219 C 104.65625 56.097656 99.371094 58.285156 93.855469 58.285156 L 93.109375 58.285156 C 87.597656 58.285156 82.308594 56.097656 78.414062 52.199219 C 74.515625 48.300781 72.324219 43.011719 72.324219 37.5 C 72.324219 31.988281 74.515625 26.699219 78.414062 22.800781 C 82.308594 18.902344 87.597656 16.714844 93.109375 16.714844 Z M 93.109375 16.714844 " clip-rule="nonzero"/></clipPath><clipPath id="1647fb10a6"><path d="M 0.324219 0.714844 L 42.707031 0.714844 L 42.707031 42.285156 L 0.324219 42.285156 Z M 0.324219 0.714844 " clip-rule="nonzero"/></clipPath><clipPath id="2758ce61ba"><path d="M 21.109375 0.714844 L 21.855469 0.714844 C 27.371094 0.714844 32.65625 2.902344 36.554688 6.800781 C 40.453125 10.699219 42.644531 15.988281 42.644531 21.5 C 42.644531 27.011719 40.453125 32.300781 36.554688 36.199219 C 32.65625 40.097656 27.371094 42.285156 21.855469 42.285156 L 21.109375 42.285156 C 15.597656 42.285156 10.308594 40.097656 6.414062 36.199219 C 2.515625 32.300781 0.324219 27.011719 0.324219 21.5 C 0.324219 15.988281 2.515625 10.699219 6.414062 6.800781 C 10.308594 2.902344 15.597656 0.714844 21.109375 0.714844 Z M 21.109375 0.714844 " clip-rule="nonzero"/></clipPath><clipPath id="0e35058f05"><rect x="0" width="43" y="0" height="43"/></clipPath><clipPath id="b128851ce8"><path d="M 126.644531 16.714844 L 169 16.714844 L 169 58.285156 L 126.644531 58.285156 Z M 126.644531 16.714844 " clip-rule="nonzero"/></clipPath><clipPath id="3f55d56f8e"><path d="M 147.429688 16.714844 L 148.175781 16.714844 C 153.6875 16.714844 158.976562 18.902344 162.875 22.800781 C 166.773438 26.699219 168.960938 31.988281 168.960938 37.5 C 168.960938 43.011719 166.773438 48.300781 162.875 52.199219 C 158.976562 56.097656 153.6875 58.285156 148.175781 58.285156 L 147.429688 58.285156 C 141.917969 58.285156 136.628906 56.097656 132.730469 52.199219 C 128.832031 48.300781 126.644531 43.011719 126.644531 37.5 C 126.644531 31.988281 128.832031 26.699219 132.730469 22.800781 C 136.628906 18.902344 141.917969 16.714844 147.429688 16.714844 Z M 147.429688 16.714844 " clip-rule="nonzero"/></clipPath><clipPath id="1bce4550e4"><path d="M 0.644531 0.714844 L 43 0.714844 L 43 42.285156 L 0.644531 42.285156 Z M 0.644531 0.714844 " clip-rule="nonzero"/></clipPath><clipPath id="8559f78885"><path d="M 21.429688 0.714844 L 22.175781 0.714844 C 27.6875 0.714844 32.976562 2.902344 36.875 6.800781 C 40.773438 10.699219 42.960938 15.988281 42.960938 21.5 C 42.960938 27.011719 40.773438 32.300781 36.875 36.199219 C 32.976562 40.097656 27.6875 42.285156 22.175781 42.285156 L 21.429688 42.285156 C 15.917969 42.285156 10.628906 40.097656 6.730469 36.199219 C 2.832031 32.300781 0.644531 27.011719 0.644531 21.5 C 0.644531 15.988281 2.832031 10.699219 6.730469 6.800781 C 10.628906 2.902344 15.917969 0.714844 21.429688 0.714844 Z M 21.429688 0.714844 " clip-rule="nonzero"/></clipPath><clipPath id="01e647dacf"><rect x="0" width="43" y="0" height="43"/></clipPath><clipPath id="553b1c2fc2"><path d="M 126.644531 16.714844 L 168.644531 16.714844 L 168.644531 57.964844 L 126.644531 57.964844 Z M 126.644531 16.714844 " clip-rule="nonzero"/></clipPath><clipPath id="98bb46d8cb"><path d="M 147.425781 16.714844 L 148.175781 16.714844 C 153.6875 16.714844 158.972656 18.902344 162.871094 22.800781 C 166.769531 26.699219 168.957031 31.984375 168.957031 37.496094 C 168.957031 43.007812 166.769531 48.296875 162.871094 52.191406 C 158.972656 56.089844 153.6875 58.28125 148.175781 58.28125 L 147.425781 58.28125 C 141.914062 58.28125 136.628906 56.089844 132.730469 52.191406 C 128.835938 48.296875 126.644531 43.007812 126.644531 37.496094 C 126.644531 31.984375 128.835938 26.699219 132.730469 22.800781 C 136.628906 18.902344 141.914062 16.714844 147.425781 16.714844 Z M 147.425781 16.714844 " clip-rule="nonzero"/></clipPath><clipPath id="ee2492f85e"><path d="M 360 0 L 720 0 L 720 432 L 360 432 Z M 360 0 " clip-rule="nonzero"/></clipPath><clipPath id="97e8a64545"><path d="M 411 0 L 669 0 C 697.167969 0 720 22.832031 720 51 L 720 381 C 720 409.167969 697.167969 432 669 432 L 411 432 C 382.832031 432 360 409.167969 360 381 L 360 51 C 360 22.832031 382.832031 0 411 0 Z M 411 0 " clip-rule="nonzero"/></clipPath><clipPath id="cc2d5a4796"><path d="M 0 0 L 360 0 L 360 432 L 0 432 Z M 0 0 " clip-rule="nonzero"/></clipPath><clipPath id="c0068cac32"><path d="M 51 0 L 309 0 C 337.167969 0 360 22.832031 360 51 L 360 381 C 360 409.167969 337.167969 432 309 432 L 51 432 C 22.832031 432 0 409.167969 0 381 L 0 51 C 0 22.832031 22.832031 0 51 0 Z M 51 0 " clip-rule="nonzero"/></clipPath><clipPath id="4c4ae65530"><rect x="0" width="360" y="0" height="432"/></clipPath><clipPath id="2804f83ce9"><path d="M 316.753906 0 L 720 0 L 720 382.886719 L 316.753906 382.886719 Z M 316.753906 0 " clip-rule="nonzero"/></clipPath><clipPath id="b2c2c54a08"><path d="M 367.753906 0 L 669 0 C 697.167969 0 720 22.832031 720 51 L 720 331.886719 C 720 360.050781 697.167969 382.886719 669 382.886719 L 367.753906 382.886719 C 339.585938 382.886719 316.753906 360.050781 316.753906 331.886719 L 316.753906 51 C 316.753906 22.832031 339.585938 0 367.753906 0 Z M 367.753906 0 " clip-rule="nonzero"/></clipPath><clipPath id="bc40ad237e"><path d="M 0.753906 0 L 404 0 L 404 382.886719 L 0.753906 382.886719 Z M 0.753906 0 " clip-rule="nonzero"/></clipPath><clipPath id="1015bf91cf"><path d="M 51.753906 0 L 353 0 C 381.167969 0 404 22.832031 404 51 L 404 331.886719 C 404 360.050781 381.167969 382.886719 353 382.886719 L 51.753906 382.886719 C 23.585938 382.886719 0.753906 360.050781 0.753906 331.886719 L 0.753906 51 C 0.753906 22.832031 23.585938 0 51.753906 0 Z M 51.753906 0 " clip-rule="nonzero"/></clipPath><clipPath id="459ab738e1"><rect x="0" width="404" y="0" height="383"/></clipPath><clipPath id="31aef37559"><path d="M 360 318.984375 L 720 318.984375 L 720 382.886719 L 360 382.886719 Z M 360 318.984375 " clip-rule="nonzero"/></clipPath><clipPath id="5d96ae029f"><path d="M 0 0.984375 L 360 0.984375 L 360 64.886719 L 0 64.886719 Z M 0 0.984375 " clip-rule="nonzero"/></clipPath><clipPath id="08559570df"><rect x="0" width="360" y="0" height="65"/></clipPath><clipPath id="921c8dd547"><path d="M 377.894531 16.714844 L 420.28125 16.714844 L 420.28125 58.285156 L 377.894531 58.285156 Z M 377.894531 16.714844 " clip-rule="nonzero"/></clipPath><clipPath id="75a54d4e3d"><path d="M 398.679688 16.714844 L 399.429688 16.714844 C 404.941406 16.714844 410.226562 18.902344 414.125 22.800781 C 418.023438 26.699219 420.214844 31.988281 420.214844 37.5 C 420.214844 43.011719 418.023438 48.300781 414.125 52.199219 C 410.226562 56.097656 404.941406 58.285156 399.429688 58.285156 L 398.679688 58.285156 C 393.167969 58.285156 387.882812 56.097656 383.984375 52.199219 C 380.085938 48.300781 377.894531 43.011719 377.894531 37.5 C 377.894531 31.988281 380.085938 26.699219 383.984375 22.800781 C 387.882812 18.902344 393.167969 16.714844 398.679688 16.714844 Z M 398.679688 16.714844 " clip-rule="nonzero"/></clipPath><clipPath id="3060d5a868"><path d="M 0.894531 0.714844 L 43.238281 0.714844 L 43.238281 42.285156 L 0.894531 42.285156 Z M 0.894531 0.714844 " clip-rule="nonzero"/></clipPath><clipPath id="466a73b157"><path d="M 21.679688 0.714844 L 22.429688 0.714844 C 27.941406 0.714844 33.226562 2.902344 37.125 6.800781 C 41.023438 10.699219 43.214844 15.988281 43.214844 21.5 C 43.214844 27.011719 41.023438 32.300781 37.125 36.199219 C 33.226562 40.097656 27.941406 42.285156 22.429688 42.285156 L 21.679688 42.285156 C 16.167969 42.285156 10.882812 40.097656 6.984375 36.199219 C 3.085938 32.300781 0.894531 27.011719 0.894531 21.5 C 0.894531 15.988281 3.085938 10.699219 6.984375 6.800781 C 10.882812 2.902344 16.167969 0.714844 21.679688 0.714844 Z M 21.679688 0.714844 " clip-rule="nonzero"/></clipPath><clipPath id="2d888acc76"><rect x="0" width="44" y="0" height="43"/></clipPath><clipPath id="8675a29fb4"><path d="M 432.324219 16.714844 L 474.707031 16.714844 L 474.707031 58.285156 L 432.324219 58.285156 Z M 432.324219 16.714844 " clip-rule="nonzero"/></clipPath><clipPath id="1802db6361"><path d="M 453.109375 16.714844 L 453.855469 16.714844 C 459.371094 16.714844 464.65625 18.902344 468.554688 22.800781 C 472.453125 26.699219 474.644531 31.988281 474.644531 37.5 C 474.644531 43.011719 472.453125 48.300781 468.554688 52.199219 C 464.65625 56.097656 459.371094 58.285156 453.855469 58.285156 L 453.109375 58.285156 C 447.597656 58.285156 442.308594 56.097656 438.410156 52.199219 C 434.515625 48.300781 432.324219 43.011719 432.324219 37.5 C 432.324219 31.988281 434.515625 26.699219 438.410156 22.800781 C 442.308594 18.902344 447.597656 16.714844 453.109375 16.714844 Z M 453.109375 16.714844 " clip-rule="nonzero"/></clipPath><clipPath id="4e4e1d1764"><path d="M 0.324219 0.714844 L 42.707031 0.714844 L 42.707031 42.285156 L 0.324219 42.285156 Z M 0.324219 0.714844 " clip-rule="nonzero"/></clipPath><clipPath id="f7ae87b127"><path d="M 21.109375 0.714844 L 21.855469 0.714844 C 27.371094 0.714844 32.65625 2.902344 36.554688 6.800781 C 40.453125 10.699219 42.644531 15.988281 42.644531 21.5 C 42.644531 27.011719 40.453125 32.300781 36.554688 36.199219 C 32.65625 40.097656 27.371094 42.285156 21.855469 42.285156 L 21.109375 42.285156 C 15.597656 42.285156 10.308594 40.097656 6.410156 36.199219 C 2.515625 32.300781 0.324219 27.011719 0.324219 21.5 C 0.324219 15.988281 2.515625 10.699219 6.410156 6.800781 C 10.308594 2.902344 15.597656 0.714844 21.109375 0.714844 Z M 21.109375 0.714844 " clip-rule="nonzero"/></clipPath><clipPath id="5ec4b279ac"><rect x="0" width="43" y="0" height="43"/></clipPath><clipPath id="c40d470a67"><path d="M 486.644531 16.714844 L 529 16.714844 L 529 58.285156 L 486.644531 58.285156 Z M 486.644531 16.714844 " clip-rule="nonzero"/></clipPath><clipPath id="be0e700186"><path d="M 507.429688 16.714844 L 508.175781 16.714844 C 513.6875 16.714844 518.976562 18.902344 522.875 22.800781 C 526.773438 26.699219 528.960938 31.988281 528.960938 37.5 C 528.960938 43.011719 526.773438 48.300781 522.875 52.199219 C 518.976562 56.097656 513.6875 58.285156 508.175781 58.285156 L 507.429688 58.285156 C 501.917969 58.285156 496.628906 56.097656 492.730469 52.199219 C 488.832031 48.300781 486.644531 43.011719 486.644531 37.5 C 486.644531 31.988281 488.832031 26.699219 492.730469 22.800781 C 496.628906 18.902344 501.917969 16.714844 507.429688 16.714844 Z M 507.429688 16.714844 " clip-rule="nonzero"/></clipPath><clipPath id="e453fe9b02"><path d="M 0.644531 0.714844 L 43 0.714844 L 43 42.285156 L 0.644531 42.285156 Z M 0.644531 0.714844 " clip-rule="nonzero"/></clipPath><clipPath id="f233194b3d"><path d="M 21.429688 0.714844 L 22.175781 0.714844 C 27.6875 0.714844 32.976562 2.902344 36.875 6.800781 C 40.773438 10.699219 42.960938 15.988281 42.960938 21.5 C 42.960938 27.011719 40.773438 32.300781 36.875 36.199219 C 32.976562 40.097656 27.6875 42.285156 22.175781 42.285156 L 21.429688 42.285156 C 15.917969 42.285156 10.628906 40.097656 6.730469 36.199219 C 2.832031 32.300781 0.644531 27.011719 0.644531 21.5 C 0.644531 15.988281 2.832031 10.699219 6.730469 6.800781 C 10.628906 2.902344 15.917969 0.714844 21.429688 0.714844 Z M 21.429688 0.714844 " clip-rule="nonzero"/></clipPath><clipPath id="ed92612a8a"><rect x="0" width="43" y="0" height="43"/></clipPath><clipPath id="67333907df"><path d="M 486.644531 16.714844 L 528.644531 16.714844 L 528.644531 57.964844 L 486.644531 57.964844 Z M 486.644531 16.714844 " clip-rule="nonzero"/></clipPath><clipPath id="fc903826dc"><path d="M 507.425781 16.714844 L 508.175781 16.714844 C 513.6875 16.714844 518.972656 18.902344 522.871094 22.800781 C 526.769531 26.699219 528.957031 31.984375 528.957031 37.496094 C 528.957031 43.007812 526.769531 48.296875 522.871094 52.191406 C 518.972656 56.089844 513.6875 58.28125 508.175781 58.28125 L 507.425781 58.28125 C 501.914062 58.28125 496.628906 56.089844 492.730469 52.191406 C 488.835938 48.296875 486.644531 43.007812 486.644531 37.496094 C 486.644531 31.984375 488.835938 26.699219 492.730469 22.800781 C 496.628906 18.902344 501.914062 16.714844 507.425781 16.714844 Z M 507.425781 16.714844 " clip-rule="nonzero"/></clipPath><clipPath id="f8f5bbb0bd"><path d="M 360 383.257812 L 589.957031 383.257812 L 589.957031 432 L 360 432 Z M 360 383.257812 " clip-rule="nonzero"/></clipPath><clipPath id="15ee014319"><path d="M 0 0.257812 L 229.957031 0.257812 L 229.957031 49 L 0 49 Z M 0 0.257812 " clip-rule="nonzero"/></clipPath><clipPath id="47a71d3539"><rect x="0" width="230" y="0" height="49"/></clipPath></defs><g clip-path="url(#31c45be217)"><g transform="matrix(1, 0, 0, 1, 0, 0)"><g clip-path="url(#efb1a32a5f)"><g clip-path="url(#7ace03794e)"><g clip-path="url(#6475757b7c)"><rect x="-158.4" width="1036.8" fill="#000000" height="622.079977" y="-95.039996" fill-opacity="1"/></g></g></g></g></g><g clip-path="url(#c9517374dd)"><g clip-path="url(#7f440be11c)"><g transform="matrix(1, 0, 0, 1, 316, 333)"><g clip-path="url(#a68aee9b67)"><g clip-path="url(#2058776677)"><g clip-path="url(#51317fc338)"><path fill="#101828" d="M 0.753906 0.769531 L 404.027344 0.769531 L 404.027344 99 L 0.753906 99 Z M 0.753906 0.769531 " fill-opacity="1" fill-rule="nonzero"/></g></g></g></g></g></g><g clip-path="url(#1a5610123f)"><g clip-path="url(#82081c7e6f)"><g transform="matrix(1, 0, 0, 1, 0, 333)"><g clip-path="url(#6a2e015138)"><g clip-path="url(#bb4f8197cd)"><g clip-path="url(#230d0c636d)"><path fill="#ffffff" d="M 0 0.769531 L 442.027344 0.769531 L 442.027344 99 L 0 99 Z M 0 0.769531 " fill-opacity="1" fill-rule="nonzero"/></g></g></g></g></g></g><g clip-path="url(#8f511bb26d)"><g clip-path="url(#1f2fb21791)"><g transform="matrix(1, 0, 0, 1, 0, 0)"><g clip-path="url(#f90f286917)"><g clip-path="url(#ea83b1e930)"><g clip-path="url(#7a280261b4)"><path fill="#e5e5e5" d="M 0 0 L 474.121094 0 L 474.121094 382.886719 L 0 382.886719 Z M 0 0 " fill-opacity="1" fill-rule="nonzero"/></g></g></g></g></g></g><g clip-path="url(#d6c6883724)"><g transform="matrix(1, 0, 0, 1, 0, 318)"><g clip-path="url(#1b70d4617a)"><g clip-path="url(#dff3a3dc02)"><path fill="#e5e5e5" d="M 0 0.984375 L 720.121094 0.984375 L 720.121094 64.886719 L 0 64.886719 Z M 0 0.984375 " fill-opacity="1" fill-rule="nonzero"/></g></g></g></g><g clip-path="url(#6ecd997b2a)"><g clip-path="url(#5dadbadfab)"><g transform="matrix(1, 0, 0, 1, 17, 16)"><g clip-path="url(#52950fac0a)"><g clip-path="url(#474f2fb833)"><g clip-path="url(#e40d8caf45)"><path fill="#ffffff" d="M 0.894531 0.714844 L 43.28125 0.714844 L 43.28125 42.285156 L 0.894531 42.285156 Z M 0.894531 0.714844 " fill-opacity="1" fill-rule="nonzero"/></g></g></g></g></g></g><g clip-path="url(#63bc9f3629)"><g clip-path="url(#4cd098e89b)"><g transform="matrix(1, 0, 0, 1, 72, 16)"><g clip-path="url(#0e35058f05)"><g clip-path="url(#1647fb10a6)"><g clip-path="url(#2758ce61ba)"><path fill="#ffffff" d="M 0.324219 0.714844 L 42.707031 0.714844 L 42.707031 42.285156 L 0.324219 42.285156 Z M 0.324219 0.714844 " fill-opacity="1" fill-rule="nonzero"/></g></g></g></g></g></g><g clip-path="url(#b128851ce8)"><g clip-path="url(#3f55d56f8e)"><g transform="matrix(1, 0, 0, 1, 126, 16)"><g clip-path="url(#01e647dacf)"><g clip-path="url(#1bce4550e4)"><g clip-path="url(#8559f78885)"><path fill="#fdc700" d="M 0.644531 0.714844 L 43.027344 0.714844 L 43.027344 42.285156 L 0.644531 42.285156 Z M 0.644531 0.714844 " fill-opacity="1" fill-rule="nonzero"/></g></g></g></g></g></g><g clip-path="url(#553b1c2fc2)"><g clip-path="url(#98bb46d8cb)"><path stroke-linecap="butt" transform="matrix(0.75, 0, 0, 0.75, 126.642865, 16.71369)" fill="none" stroke-linejoin="miter" d="M 27.710557 0.00153817 L 28.710557 0.00153817 C 36.059516 0.00153817 43.106392 2.918205 48.304309 8.116122 C 53.502226 13.314039 56.418893 20.360915 56.418893 27.709874 C 56.418893 35.058833 53.502226 42.110916 48.304309 47.303625 C 43.106392 52.501542 36.059516 55.423418 28.710557 55.423418 L 27.710557 55.423418 C 20.361598 55.423418 13.314723 52.501542 8.116806 47.303625 C 2.924097 42.110916 0.00222171 35.058833 0.00222171 27.709874 C 0.00222171 20.360915 2.924097 13.314039 8.116806 8.116122 C 13.314723 2.918205 20.361598 0.00153817 27.710557 0.00153817 Z M 27.710557 0.00153817 " stroke="#f0ad17" stroke-width="16" stroke-opacity="1" stroke-miterlimit="4"/></g></g><g clip-path="url(#ee2492f85e)"><g clip-path="url(#97e8a64545)"><g transform="matrix(1, 0, 0, 1, 360, 0)"><g clip-path="url(#4c4ae65530)"><g clip-path="url(#cc2d5a4796)"><g clip-path="url(#c0068cac32)"><path fill="#101828" d="M 0 0 L 360 0 L 360 431.71875 L 0 431.71875 Z M 0 0 " fill-opacity="1" fill-rule="nonzero"/></g></g></g></g></g></g><g clip-path="url(#2804f83ce9)"><g clip-path="url(#b2c2c54a08)"><g transform="matrix(1, 0, 0, 1, 316, 0)"><g clip-path="url(#459ab738e1)"><g clip-path="url(#bc40ad237e)"><g clip-path="url(#1015bf91cf)"><path fill="#e5e5e5" d="M 0.753906 0 L 404.578125 0 L 404.578125 382.886719 L 0.753906 382.886719 Z M 0.753906 0 " fill-opacity="1" fill-rule="nonzero"/></g></g></g></g></g></g><g clip-path="url(#31aef37559)"><g transform="matrix(1, 0, 0, 1, 360, 318)"><g clip-path="url(#08559570df)"><g clip-path="url(#5d96ae029f)"><path fill="#e5e5e5" d="M 0 0.984375 L 720.121094 0.984375 L 720.121094 64.886719 L 0 64.886719 Z M 0 0.984375 " fill-opacity="1" fill-rule="nonzero"/></g></g></g></g><g clip-path="url(#921c8dd547)"><g clip-path="url(#75a54d4e3d)"><g transform="matrix(1, 0, 0, 1, 377, 16)"><g clip-path="url(#2d888acc76)"><g clip-path="url(#3060d5a868)"><g clip-path="url(#466a73b157)"><path fill="#101828" d="M 0.894531 0.714844 L 43.28125 0.714844 L 43.28125 42.285156 L 0.894531 42.285156 Z M 0.894531 0.714844 " fill-opacity="1" fill-rule="nonzero"/></g></g></g></g></g></g><g clip-path="url(#8675a29fb4)"><g clip-path="url(#1802db6361)"><g transform="matrix(1, 0, 0, 1, 432, 16)"><g clip-path="url(#5ec4b279ac)"><g clip-path="url(#4e4e1d1764)"><g clip-path="url(#f7ae87b127)"><path fill="#101828" d="M 0.324219 0.714844 L 42.707031 0.714844 L 42.707031 42.285156 L 0.324219 42.285156 Z M 0.324219 0.714844 " fill-opacity="1" fill-rule="nonzero"/></g></g></g></g></g></g><g clip-path="url(#c40d470a67)"><g clip-path="url(#be0e700186)"><g transform="matrix(1, 0, 0, 1, 486, 16)"><g clip-path="url(#ed92612a8a)"><g clip-path="url(#e453fe9b02)"><g clip-path="url(#f233194b3d)"><path fill="#fdc700" d="M 0.644531 0.714844 L 43.027344 0.714844 L 43.027344 42.285156 L 0.644531 42.285156 Z M 0.644531 0.714844 " fill-opacity="1" fill-rule="nonzero"/></g></g></g></g></g></g><g clip-path="url(#67333907df)"><g clip-path="url(#fc903826dc)"><path stroke-linecap="butt" transform="matrix(0.75, 0, 0, 0.75, 486.642815, 16.71369)" fill="none" stroke-linejoin="miter" d="M 27.710624 0.00153817 L 28.710624 0.00153817 C 36.059583 0.00153817 43.106458 2.918205 48.304375 8.116122 C 53.502293 13.314039 56.418959 20.360915 56.418959 27.709874 C 56.418959 35.058833 53.502293 42.110916 48.304375 47.303625 C 43.106458 52.501542 36.059583 55.423418 28.710624 55.423418 L 27.710624 55.423418 C 20.361665 55.423418 13.314789 52.501542 8.116872 47.303625 C 2.924164 42.110916 0.00228829 35.058833 0.00228829 27.709874 C 0.00228829 20.360915 2.924164 13.314039 8.116872 8.116122 C 13.314789 2.918205 20.361665 0.00153817 27.710624 0.00153817 Z M 27.710624 0.00153817 " stroke="#f0ad17" stroke-width="16" stroke-opacity="1" stroke-miterlimit="4"/></g></g><g clip-path="url(#f8f5bbb0bd)"><g transform="matrix(1, 0, 0, 1, 360, 383)"><g clip-path="url(#47a71d3539)"><g clip-path="url(#15ee014319)"><path fill="#101828" d="M 0 0.257812 L 229.996094 0.257812 L 229.996094 49 L 0 49 Z M 0 0.257812 " fill-opacity="1" fill-rule="nonzero"/></g></g></g></g><path stroke-linecap="butt" transform="matrix(-0.00038196, 0.75, -0.75, -0.00038196, 367.874252, 0.00474609)" fill="none" stroke-linejoin="miter" d="M -0.000981191 10.499006 L 575.504364 10.497579 " stroke="#ffffff" stroke-width="21" stroke-opacity="1" stroke-miterlimit="4"/></svg>