<svg xmlns="http://www.w3.org/2000/svg" xmlns:xlink="http://www.w3.org/1999/xlink" width="960" zoomAndPan="magnify" viewBox="0 0 720 431.999984" height="576" preserveAspectRatio="xMidYMid meet" version="1.0"><defs><clipPath id="3fc7e841f5"><path d="M 51 0 L 669 0 C 697.167969 0 720 22.832031 720 51 L 720 381 C 720 409.167969 697.167969 432 669 432 L 51 432 C 22.832031 432 0 409.167969 0 381 L 0 51 C 0 22.832031 22.832031 0 51 0 Z M 51 0 " clip-rule="nonzero"/></clipPath><clipPath id="da97f9cdaf"><path d="M 0 0 L 720 0 L 720 432 L 0 432 Z M 0 0 " clip-rule="nonzero"/></clipPath><clipPath id="454919353d"><path d="M 51 0 L 669 0 C 697.167969 0 720 22.832031 720 51 L 720 381 C 720 409.167969 697.167969 432 669 432 L 51 432 C 22.832031 432 0 409.167969 0 381 L 0 51 C 0 22.832031 22.832031 0 51 0 Z M 51 0 " clip-rule="nonzero"/></clipPath><clipPath id="a452b2caa4"><rect x="0" width="720" y="0" height="432"/></clipPath><clipPath id="5b7f04b14c"><path d="M 0 333.769531 L 720 333.769531 L 720 432 L 0 432 Z M 0 333.769531 " clip-rule="nonzero"/></clipPath><clipPath id="fb96be954b"><path d="M 49.113281 333.769531 L 670.886719 333.769531 C 683.910156 333.769531 696.402344 338.945312 705.613281 348.15625 C 714.824219 357.367188 720 369.859375 720 382.886719 C 720 395.910156 714.824219 408.402344 705.613281 417.613281 C 696.402344 426.824219 683.910156 432 670.886719 432 L 49.113281 432 C 36.089844 432 23.597656 426.824219 14.386719 417.613281 C 5.175781 408.402344 0 395.910156 0 382.886719 C 0 369.859375 5.175781 357.367188 14.386719 348.15625 C 23.597656 338.945312 36.089844 333.769531 49.113281 333.769531 Z M 49.113281 333.769531 " clip-rule="nonzero"/></clipPath><clipPath id="ad40dfc91c"><path d="M 0 0.769531 L 720 0.769531 L 720 99 L 0 99 Z M 0 0.769531 " clip-rule="nonzero"/></clipPath><clipPath id="d3c5d60cb2"><path d="M 49.113281 0.769531 L 670.886719 0.769531 C 683.910156 0.769531 696.402344 5.945312 705.613281 15.15625 C 714.824219 24.367188 720 36.859375 720 49.886719 C 720 62.910156 714.824219 75.402344 705.613281 84.613281 C 696.402344 93.824219 683.910156 99 670.886719 99 L 49.113281 99 C 36.089844 99 23.597656 93.824219 14.386719 84.613281 C 5.175781 75.402344 0 62.910156 0 49.886719 C 0 36.859375 5.175781 24.367188 14.386719 15.15625 C 23.597656 5.945312 36.089844 0.769531 49.113281 0.769531 Z M 49.113281 0.769531 " clip-rule="nonzero"/></clipPath><clipPath id="6c73531a85"><rect x="0" width="720" y="0" height="99"/></clipPath><clipPath id="8ae9db0f41"><path d="M 0 0 L 720 0 L 720 382.886719 L 0 382.886719 Z M 0 0 " clip-rule="nonzero"/></clipPath><clipPath id="600158caf4"><path d="M 51 0 L 669 0 C 697.167969 0 720 22.832031 720 51 L 720 331.886719 C 720 360.050781 697.167969 382.886719 669 382.886719 L 51 382.886719 C 22.832031 382.886719 0 360.050781 0 331.886719 L 0 51 C 0 22.832031 22.832031 0 51 0 Z M 51 0 " clip-rule="nonzero"/></clipPath><clipPath id="abda088b00"><path d="M 0 0 L 720 0 L 720 382.886719 L 0 382.886719 Z M 0 0 " clip-rule="nonzero"/></clipPath><clipPath id="59d995906d"><path d="M 51 0 L 669 0 C 697.167969 0 720 22.832031 720 51 L 720 331.886719 C 720 360.050781 697.167969 382.886719 669 382.886719 L 51 382.886719 C 22.832031 382.886719 0 360.050781 0 331.886719 L 0 51 C 0 22.832031 22.832031 0 51 0 Z M 51 0 " clip-rule="nonzero"/></clipPath><clipPath id="a032fa7574"><rect x="0" width="720" y="0" height="383"/></clipPath><clipPath id="2ac6388014"><path d="M 0 318.984375 L 720 318.984375 L 720 382.886719 L 0 382.886719 Z M 0 318.984375 " clip-rule="nonzero"/></clipPath><clipPath id="5f873838f6"><path d="M 0 0.984375 L 720 0.984375 L 720 64.886719 L 0 64.886719 Z M 0 0.984375 " clip-rule="nonzero"/></clipPath><clipPath id="b3950a03b3"><rect x="0" width="720" y="0" height="65"/></clipPath><clipPath id="7e41eac736"><path d="M 17.894531 16.714844 L 60.28125 16.714844 L 60.28125 58.285156 L 17.894531 58.285156 Z M 17.894531 16.714844 " clip-rule="nonzero"/></clipPath><clipPath id="bd69e68e3f"><path d="M 38.679688 16.714844 L 39.429688 16.714844 C 44.941406 16.714844 50.226562 18.902344 54.125 22.800781 C 58.023438 26.699219 60.214844 31.988281 60.214844 37.5 C 60.214844 43.011719 58.023438 48.300781 54.125 52.199219 C 50.226562 56.097656 44.941406 58.285156 39.429688 58.285156 L 38.679688 58.285156 C 33.167969 58.285156 27.882812 56.097656 23.984375 52.199219 C 20.085938 48.300781 17.894531 43.011719 17.894531 37.5 C 17.894531 31.988281 20.085938 26.699219 23.984375 22.800781 C 27.882812 18.902344 33.167969 16.714844 38.679688 16.714844 Z M 38.679688 16.714844 " clip-rule="nonzero"/></clipPath><clipPath id="2773f8043d"><path d="M 0.894531 0.714844 L 43.238281 0.714844 L 43.238281 42.285156 L 0.894531 42.285156 Z M 0.894531 0.714844 " clip-rule="nonzero"/></clipPath><clipPath id="4d9e963aba"><path d="M 21.679688 0.714844 L 22.429688 0.714844 C 27.941406 0.714844 33.226562 2.902344 37.125 6.800781 C 41.023438 10.699219 43.214844 15.988281 43.214844 21.5 C 43.214844 27.011719 41.023438 32.300781 37.125 36.199219 C 33.226562 40.097656 27.941406 42.285156 22.429688 42.285156 L 21.679688 42.285156 C 16.167969 42.285156 10.882812 40.097656 6.984375 36.199219 C 3.085938 32.300781 0.894531 27.011719 0.894531 21.5 C 0.894531 15.988281 3.085938 10.699219 6.984375 6.800781 C 10.882812 2.902344 16.167969 0.714844 21.679688 0.714844 Z M 21.679688 0.714844 " clip-rule="nonzero"/></clipPath><clipPath id="c94d3204bf"><rect x="0" width="44" y="0" height="43"/></clipPath><clipPath id="115182b21f"><path d="M 72.324219 16.714844 L 114.707031 16.714844 L 114.707031 58.285156 L 72.324219 58.285156 Z M 72.324219 16.714844 " clip-rule="nonzero"/></clipPath><clipPath id="6c89611f5e"><path d="M 93.109375 16.714844 L 93.855469 16.714844 C 99.371094 16.714844 104.65625 18.902344 108.554688 22.800781 C 112.453125 26.699219 114.644531 31.988281 114.644531 37.5 C 114.644531 43.011719 112.453125 48.300781 108.554688 52.199219 C 104.65625 56.097656 99.371094 58.285156 93.855469 58.285156 L 93.109375 58.285156 C 87.597656 58.285156 82.308594 56.097656 78.414062 52.199219 C 74.515625 48.300781 72.324219 43.011719 72.324219 37.5 C 72.324219 31.988281 74.515625 26.699219 78.414062 22.800781 C 82.308594 18.902344 87.597656 16.714844 93.109375 16.714844 Z M 93.109375 16.714844 " clip-rule="nonzero"/></clipPath><clipPath id="9155aeb139"><path d="M 0.324219 0.714844 L 42.707031 0.714844 L 42.707031 42.285156 L 0.324219 42.285156 Z M 0.324219 0.714844 " clip-rule="nonzero"/></clipPath><clipPath id="e534d8c87c"><path d="M 21.109375 0.714844 L 21.855469 0.714844 C 27.371094 0.714844 32.65625 2.902344 36.554688 6.800781 C 40.453125 10.699219 42.644531 15.988281 42.644531 21.5 C 42.644531 27.011719 40.453125 32.300781 36.554688 36.199219 C 32.65625 40.097656 27.371094 42.285156 21.855469 42.285156 L 21.109375 42.285156 C 15.597656 42.285156 10.308594 40.097656 6.414062 36.199219 C 2.515625 32.300781 0.324219 27.011719 0.324219 21.5 C 0.324219 15.988281 2.515625 10.699219 6.414062 6.800781 C 10.308594 2.902344 15.597656 0.714844 21.109375 0.714844 Z M 21.109375 0.714844 " clip-rule="nonzero"/></clipPath><clipPath id="13363f2aee"><rect x="0" width="43" y="0" height="43"/></clipPath><clipPath id="9164128a3c"><path d="M 126.644531 16.714844 L 169 16.714844 L 169 58.285156 L 126.644531 58.285156 Z M 126.644531 16.714844 " clip-rule="nonzero"/></clipPath><clipPath id="7a009dbeb9"><path d="M 147.429688 16.714844 L 148.175781 16.714844 C 153.6875 16.714844 158.976562 18.902344 162.875 22.800781 C 166.773438 26.699219 168.960938 31.988281 168.960938 37.5 C 168.960938 43.011719 166.773438 48.300781 162.875 52.199219 C 158.976562 56.097656 153.6875 58.285156 148.175781 58.285156 L 147.429688 58.285156 C 141.917969 58.285156 136.628906 56.097656 132.730469 52.199219 C 128.832031 48.300781 126.644531 43.011719 126.644531 37.5 C 126.644531 31.988281 128.832031 26.699219 132.730469 22.800781 C 136.628906 18.902344 141.917969 16.714844 147.429688 16.714844 Z M 147.429688 16.714844 " clip-rule="nonzero"/></clipPath><clipPath id="4dfd1be2d6"><path d="M 0.644531 0.714844 L 43 0.714844 L 43 42.285156 L 0.644531 42.285156 Z M 0.644531 0.714844 " clip-rule="nonzero"/></clipPath><clipPath id="2926774f01"><path d="M 21.429688 0.714844 L 22.175781 0.714844 C 27.6875 0.714844 32.976562 2.902344 36.875 6.800781 C 40.773438 10.699219 42.960938 15.988281 42.960938 21.5 C 42.960938 27.011719 40.773438 32.300781 36.875 36.199219 C 32.976562 40.097656 27.6875 42.285156 22.175781 42.285156 L 21.429688 42.285156 C 15.917969 42.285156 10.628906 40.097656 6.730469 36.199219 C 2.832031 32.300781 0.644531 27.011719 0.644531 21.5 C 0.644531 15.988281 2.832031 10.699219 6.730469 6.800781 C 10.628906 2.902344 15.917969 0.714844 21.429688 0.714844 Z M 21.429688 0.714844 " clip-rule="nonzero"/></clipPath><clipPath id="e13858e7a6"><rect x="0" width="43" y="0" height="43"/></clipPath><clipPath id="428f6ad1db"><path d="M 126.644531 16.714844 L 168.644531 16.714844 L 168.644531 57.964844 L 126.644531 57.964844 Z M 126.644531 16.714844 " clip-rule="nonzero"/></clipPath><clipPath id="ddbee5050f"><path d="M 147.425781 16.714844 L 148.175781 16.714844 C 153.6875 16.714844 158.972656 18.902344 162.871094 22.800781 C 166.769531 26.699219 168.957031 31.984375 168.957031 37.496094 C 168.957031 43.007812 166.769531 48.296875 162.871094 52.191406 C 158.972656 56.089844 153.6875 58.28125 148.175781 58.28125 L 147.425781 58.28125 C 141.914062 58.28125 136.628906 56.089844 132.730469 52.191406 C 128.835938 48.296875 126.644531 43.007812 126.644531 37.496094 C 126.644531 31.984375 128.835938 26.699219 132.730469 22.800781 C 136.628906 18.902344 141.914062 16.714844 147.425781 16.714844 Z M 147.425781 16.714844 " clip-rule="nonzero"/></clipPath></defs><g clip-path="url(#3fc7e841f5)"><g transform="matrix(1, 0, 0, 1, 0, 0)"><g clip-path="url(#a452b2caa4)"><g clip-path="url(#da97f9cdaf)"><g clip-path="url(#454919353d)"><rect x="-158.4" width="1036.8" fill="#919191" height="622.079977" y="-95.039996" fill-opacity="1"/></g></g></g></g></g><g clip-path="url(#5b7f04b14c)"><g clip-path="url(#fb96be954b)"><g transform="matrix(1, 0, 0, 1, 0, 333)"><g clip-path="url(#6c73531a85)"><g clip-path="url(#ad40dfc91c)"><g clip-path="url(#d3c5d60cb2)"><path fill="#101828" d="M 0 0.769531 L 719.832031 0.769531 L 719.832031 99 L 0 99 Z M 0 0.769531 " fill-opacity="1" fill-rule="nonzero"/></g></g></g></g></g></g><g clip-path="url(#8ae9db0f41)"><g clip-path="url(#600158caf4)"><g transform="matrix(1, 0, 0, 1, 0, 0)"><g clip-path="url(#a032fa7574)"><g clip-path="url(#abda088b00)"><g clip-path="url(#59d995906d)"><path fill="#e5e5e5" d="M 0 0 L 719.40625 0 L 719.40625 382.886719 L 0 382.886719 Z M 0 0 " fill-opacity="1" fill-rule="nonzero"/></g></g></g></g></g></g><g clip-path="url(#2ac6388014)"><g transform="matrix(1, 0, 0, 1, 0, 318)"><g clip-path="url(#b3950a03b3)"><g clip-path="url(#5f873838f6)"><path fill="#e5e5e5" d="M 0 0.984375 L 720.121094 0.984375 L 720.121094 64.886719 L 0 64.886719 Z M 0 0.984375 " fill-opacity="1" fill-rule="nonzero"/></g></g></g></g><g clip-path="url(#7e41eac736)"><g clip-path="url(#bd69e68e3f)"><g transform="matrix(1, 0, 0, 1, 17, 16)"><g clip-path="url(#c94d3204bf)"><g clip-path="url(#2773f8043d)"><g clip-path="url(#4d9e963aba)"><path fill="#101828" d="M 0.894531 0.714844 L 43.28125 0.714844 L 43.28125 42.285156 L 0.894531 42.285156 Z M 0.894531 0.714844 " fill-opacity="1" fill-rule="nonzero"/></g></g></g></g></g></g><g clip-path="url(#115182b21f)"><g clip-path="url(#6c89611f5e)"><g transform="matrix(1, 0, 0, 1, 72, 16)"><g clip-path="url(#13363f2aee)"><g clip-path="url(#9155aeb139)"><g clip-path="url(#e534d8c87c)"><path fill="#101828" d="M 0.324219 0.714844 L 42.707031 0.714844 L 42.707031 42.285156 L 0.324219 42.285156 Z M 0.324219 0.714844 " fill-opacity="1" fill-rule="nonzero"/></g></g></g></g></g></g><g clip-path="url(#9164128a3c)"><g clip-path="url(#7a009dbeb9)"><g transform="matrix(1, 0, 0, 1, 126, 16)"><g clip-path="url(#e13858e7a6)"><g clip-path="url(#4dfd1be2d6)"><g clip-path="url(#2926774f01)"><path fill="#fdc700" d="M 0.644531 0.714844 L 43.027344 0.714844 L 43.027344 42.285156 L 0.644531 42.285156 Z M 0.644531 0.714844 " fill-opacity="1" fill-rule="nonzero"/></g></g></g></g></g></g><g clip-path="url(#428f6ad1db)"><g clip-path="url(#ddbee5050f)"><path stroke-linecap="butt" transform="matrix(0.75, 0, 0, 0.75, 126.642865, 16.71371)" fill="none" stroke-linejoin="miter" d="M 27.710557 0.00151129 L 28.710557 0.00151129 C 36.059516 0.00151129 43.106392 2.918178 48.304309 8.116095 C 53.502226 13.314012 56.418893 20.360888 56.418893 27.709847 C 56.418893 35.058806 53.502226 42.11089 48.304309 47.303598 C 43.106392 52.501515 36.059516 55.423391 28.710557 55.423391 L 27.710557 55.423391 C 20.361598 55.423391 13.314723 52.501515 8.116806 47.303598 C 2.924097 42.11089 0.00222171 35.058806 0.00222171 27.709847 C 0.00222171 20.360888 2.924097 13.314012 8.116806 8.116095 C 13.314723 2.918178 20.361598 0.00151129 27.710557 0.00151129 Z M 27.710557 0.00151129 " stroke="#f0ad17" stroke-width="16" stroke-opacity="1" stroke-miterlimit="4"/></g></g></svg>